# xmcd
#
# Track frame offsets: 
#        150
#        34161
#        53732
#        71516
#        91505
#        113144
#        137531
#        161905
#        181060
#        201298
#        219892
#        241129
#        262551
#        287620
#
# Disc length: 4192 seconds
#
# Revision: 2
# Processed by: cddbd v1.5.2PL0 Copyright (c) Steve Scherf et al.
# Submitted via: ExactAudioCopy v0.99pb5
#
DISCID=b3105e0e
DTITLE=Alberto Barros - Tributo a la Salsa Colombiana
DYEAR=2007
DGENRE=Salsa
TTITLE0=Tributo a la Salsa Colombiana
TTITLE1=La Palomita
TTITLE2=Medley Fruko
TTITLE3=Torero
TTITLE4=La Rebelión
TTITLE5=Por Retenerte
TTITLE6=Oiga, Mire, Vea
TTITLE7=Ay Amor
TTITLE8=Pal Bailador
TTITLE9=Sobredosis
TTITLE10=Han Cogido La Cosa
TTITLE11=Basto Una Mirada
TTITLE12=Ganas
TTITLE13=Bonus Track Homenaje Salsa del Mundo
EXTD=
EXTT0=
EXTT1=
EXTT2=
EXTT3=
EXTT4=
EXTT5=
EXTT6=
EXTT7=
EXTT8=
EXTT9=
EXTT10=
EXTT11=
EXTT12=
EXTT13=
PLAYORDER=
